<?xml version="1.0" encoding="utf-8"?>
<!-- Generator: Adobe Illustrator 22.1.0, SVG Export Plug-In . SVG Version: 6.00 Build 0)  -->
<svg version="1.1" xmlns="http://www.w3.org/2000/svg" xmlns:xlink="http://www.w3.org/1999/xlink" x="0px" y="0px"
	 viewBox="0 0 500 500" style="enable-background:new 0 0 500 500;" xml:space="preserve">
<style type="text/css">
	.st0{fill:#333333;}
	.st1{fill:#006D50;}
	.st2{fill:#4B4B4B;}
</style>
<g id="背景sample">
</g>
<g id="レイヤー_1">
	<path class="st0" d="M450.2,25H49.8C36.1,25,25,36.1,25,49.8v400.3c0,13.7,11.1,24.8,24.8,24.8h215.5V300.7h-58.6v-67.9h58.6v-50.1
		c0-58.1,35.5-89.8,87.3-89.8c24.8,0,46.2,1.8,52.4,2.7v60.7l-36,0c-28.2,0-33.7,13.4-33.7,33.1v43.4h67.3l-8.8,67.9h-58.5V475
		h114.7c13.7,0,24.8-11.1,24.8-24.8V49.8C475,36.1,463.9,25,450.2,25z"/>
</g>
</svg>
