<?xml version="1.0" encoding="utf-8"?>
<!-- Generator: Adobe Illustrator 22.1.0, SVG Export Plug-In . SVG Version: 6.00 Build 0)  -->
<svg version="1.1" xmlns="http://www.w3.org/2000/svg" xmlns:xlink="http://www.w3.org/1999/xlink" x="0px" y="0px"
	 viewBox="0 0 500 500" style="enable-background:new 0 0 500 500;" xml:space="preserve">
<style type="text/css">
	.st0{fill:#333333;}
	.st1{fill:#006D50;}
	.st2{fill:#4B4B4B;}
</style>
<g id="背景sample">
</g>
<g id="レイヤー_1">
	<path class="st0" d="M475,110.3c-16.6,7.3-34.3,12.3-53,14.5c19.1-11.4,33.7-29.5,40.6-51.1c-17.8,10.6-37.6,18.3-58.6,22.4
		c-16.8-18-40.8-29.2-67.4-29.2c-51,0-92.3,41.4-92.3,92.4c0,7.2,0.8,14.3,2.4,21.1c-76.7-3.9-144.8-40.6-190.3-96.5
		c-7.9,13.6-12.5,29.5-12.5,46.4c0,32.1,16.3,60.3,41.1,76.9c-15.1-0.5-29.4-4.6-41.8-11.6c0,0.4,0,0.8,0,1.2
		c0,44.8,31.8,82.1,74.1,90.6c-7.7,2.1-15.9,3.2-24.3,3.2c-5.9,0-11.7-0.6-17.4-1.7c11.7,36.7,45.8,63.4,86.2,64.2
		C130.1,378,90.3,392.8,47,392.8c-7.5,0-14.8-0.4-22-1.3c40.9,26.2,89.4,41.5,141.5,41.5c169.8,0,262.7-140.8,262.7-262.9
		c0-4-0.1-8-0.3-12C447,145.1,462.6,128.9,475,110.3z"/>
</g>
</svg>
